# xmcd
#
# Track frame offsets: 
#        150
#        14452
#        31656
#        79642
#        106149
#        117869
#        134387
#        153511
#        175895
#        225609
#        245214
#        281892
#
# Disc length: 4621 seconds
#
# Revision: 0
# Processed by: cddbd v1.5.1PL0 Copyright (c) Steve Scherf et al.
# Submitted via: ExactAudioCopy v0.95a5
#
DISCID=99120b0c
DTITLE=Stevie Ray Vaughan and Double Trouble - Live At Lorelei '84
DYEAR=1984
DGENRE=Blues
TTITLE0=Intro/Scuttle Buttin'
TTITLE1=Testify
TTITLE2=Voodoo Chile
TTITLE3=The Things That I Used To Do
TTITLE4=Honey Bee
TTITLE5=Love Struck Baby
TTITLE6=Cold Shot
TTITLE7=Could'nt Stand The Weather
TTITLE8=Tin Pan Alley
TTITLE9=Pride And Joy
TTITLE10=Texas Flood
TTITLE11=Little Wing/3rd Stone From The Sun
EXTD=
EXTT0=
EXTT1=
EXTT2=
EXTT3=
EXTT4=
EXTT5=
EXTT6=
EXTT7=
EXTT8=
EXTT9=
EXTT10=
EXTT11=
PLAYORDER=
